<mxfile host="app.diagrams.net" modified="2023-04-12T05:32:00.473Z" agent="Mozilla/5.0 (X11; Ubuntu; Linux x86_64; rv:109.0) Gecko/20100101 Firefox/111.0" version="21.1.5" etag="Co-9NLs_zZ6ngnoOYyQ2" type="github">
  <diagram name="Page-1" id="8RUhNZKOZGPVy2IdMhhI">
    <mxGraphModel>
      <root>
        <mxCell id="0" />
        <mxCell id="1" parent="0" />
      </root>
    </mxGraphModel>
  </diagram>
</mxfile>
